# xmcd
#
# Track frame offsets:
#	150
#	19715
#	33787
#
# Disc length: 649 seconds
#
# Revision: 0
# Processed by: cddbd v1.5.1PL0 Copyright (c) Steve Scherf et al.
# Submitted via: audiograbber 1.83.01
#
DISCID=15028703
DTITLE=Carly Simon - You're So Vain (Maxi)
DYEAR=1991
DGENRE=Pop
TTITLE0=You're So Vain
TTITLE1=The Girl You Think You See
TTITLE2=Anticipation
EXTD=You're So Vain was released first in 1972
EXTT0=
EXTT1=
EXTT2=
PLAYORDER=
